<svg width="283" height="321" viewBox="0 0 283 321" fill="none" xmlns="http://www.w3.org/2000/svg">
<path d="M171.158 134.469C161.945 134.469 154.672 142.389 154.672 152.248C154.672 162.107 162.107 170.026 171.158 170.026C180.37 170.026 187.643 162.107 187.643 152.248C187.643 142.389 180.208 134.469 171.158 134.469ZM112.166 134.469C102.953 134.469 95.6801 142.389 95.6801 152.248C95.6801 162.107 103.115 170.026 112.166 170.026C121.378 170.026 128.651 162.107 128.651 152.248C128.813 142.389 121.378 134.469 112.166 134.469Z" fill="black"/>
<path d="M249.706 0H33.1325C14.8692 0 0 14.8692 0 33.1325V249.706C0 267.969 14.8692 282.838 33.1325 282.838H216.412L207.846 253.262L228.533 272.333L248.09 290.273L283 320.496V33.1325C282.838 14.8692 267.969 0 249.706 0ZM187.32 209.3C187.32 209.3 181.501 202.351 176.653 196.371C197.825 190.391 205.906 177.299 205.906 177.299C199.28 181.663 192.977 184.734 187.32 186.835C179.239 190.229 171.481 192.33 163.885 193.785C148.369 196.694 134.146 195.886 122.025 193.623C112.812 191.845 104.893 189.421 98.2661 186.673C94.5488 185.219 90.5083 183.441 86.4677 181.178C85.9829 180.855 85.498 180.693 85.0131 180.37C84.6899 180.208 84.5283 180.047 84.3666 180.047C81.4574 178.431 79.8412 177.299 79.8412 177.299C79.8412 177.299 87.5991 190.067 108.125 196.209C103.276 202.351 97.2964 209.462 97.2964 209.462C61.5779 208.331 48.0017 185.057 48.0017 185.057C48.0017 133.5 71.2753 91.6396 71.2753 91.6396C94.5488 74.3461 116.529 74.8309 116.529 74.8309L118.146 76.7704C89.0537 85.0131 75.8007 97.7813 75.8007 97.7813C75.8007 97.7813 79.3564 95.8418 85.3364 93.2558C102.63 85.6596 116.368 83.7202 122.025 83.0737C122.994 82.912 123.802 82.7504 124.772 82.7504C134.631 81.4574 145.783 81.1342 157.42 82.4272C172.774 84.205 189.259 88.7304 206.068 97.7813C206.068 97.7813 193.3 85.6596 165.824 77.4169L168.087 74.8309C168.087 74.8309 190.229 74.3461 213.341 91.6396C213.341 91.6396 236.614 133.5 236.614 185.057C236.614 184.895 223.038 208.169 187.32 209.3Z" fill="black"/>
</svg>
