<svg width="195" height="195" viewBox="0 0 195 195" fill="none" xmlns="http://www.w3.org/2000/svg">
<path d="M194.8 97.8C194.8 44.2 151.3 0.700012 97.7 0.700012C44.1 0.700012 0.599976 44.2 0.599976 97.8C0.599976 146.3 36.1 186.5 82.6 193.7V125.8H57.8V97.8H82.6V76.4C82.6 52.1 97 38.6 119.2 38.6C129.8 38.6 140.8 40.6 140.8 40.6V64.3H128.6C116.5 64.3 112.7 71.9 112.7 79.5V97.7H139.7L135.4 125.7H112.7V193.6C159.3 186.5 194.8 146.3 194.8 97.8Z" fill="black"/>
<path d="M135.5 125.9L139.8 97.9H112.8V79.7C112.8 72 116.7 64.5 128.7 64.5H140.9V40.7C140.9 40.7 129.9 38.7 119.3 38.7C97.1 38.7 82.7 52.2 82.7 76.5V97.9H57.9V125.9H82.7V193.8C87.6 194.6 92.7 195 97.8 195C102.9 195 108 194.6 112.9 193.8V125.9H135.5Z" fill="white"/>
</svg>
