<svg width="100" height="100" viewBox="0 0 100 100" fill="none" xmlns="http://www.w3.org/2000/svg">
<path d="M50.0242 0.757568C29.4627 0.757568 23.4493 0.77878 22.2804 0.87575C18.0608 1.22651 15.4351 1.8909 12.5746 3.31514C10.3701 4.40984 8.63155 5.67878 6.91569 7.45757C3.79079 10.7015 1.8969 14.6924 1.21132 19.4364C0.877995 21.7394 0.781028 22.2091 0.761332 33.9727C0.753756 37.8939 0.761332 43.0545 0.761332 49.9765C0.761332 70.522 0.784059 76.5295 0.88254 77.6962C1.22344 81.8023 1.86736 84.3856 3.23095 87.2114C5.83694 92.6204 10.8141 96.6811 16.6775 98.1962C18.7078 98.7189 20.9501 99.0068 23.8288 99.1432C25.0485 99.1962 37.4799 99.2341 49.9189 99.2341C62.3579 99.2341 74.797 99.2189 75.9863 99.1583C79.3196 99.0015 81.2551 98.7417 83.3952 98.1886C89.2965 96.6659 94.1827 92.6659 96.8418 87.1811C98.1788 84.4235 98.8568 81.7417 99.1637 77.85C99.2303 77.0015 99.2583 63.4735 99.2583 49.9636C99.2583 36.4515 99.2281 22.9485 99.1614 22.1C98.8508 18.1454 98.1728 15.4864 96.7925 12.6758C95.66 10.375 94.4024 8.65681 92.5767 6.89999C89.3185 3.78787 85.3338 1.89393 80.5854 1.20908C78.2847 0.876508 77.8264 0.778023 66.054 0.757568H50.0242Z" fill="black"/>
<path d="M50.0242 0.757568C29.4627 0.757568 23.4493 0.77878 22.2804 0.87575C18.0608 1.22651 15.4351 1.8909 12.5746 3.31514C10.3701 4.40984 8.63155 5.67878 6.91569 7.45757C3.79079 10.7015 1.8969 14.6924 1.21132 19.4364C0.877995 21.7394 0.781028 22.2091 0.761332 33.9727C0.753756 37.8939 0.761332 43.0545 0.761332 49.9765C0.761332 70.522 0.784059 76.5295 0.88254 77.6962C1.22344 81.8023 1.86736 84.3856 3.23095 87.2114C5.83694 92.6204 10.8141 96.6811 16.6775 98.1962C18.7078 98.7189 20.9501 99.0068 23.8288 99.1432C25.0485 99.1962 37.4799 99.2341 49.9189 99.2341C62.3579 99.2341 74.797 99.2189 75.9863 99.1583C79.3196 99.0015 81.2551 98.7417 83.3952 98.1886C89.2965 96.6659 94.1827 92.6659 96.8418 87.1811C98.1788 84.4235 98.8568 81.7417 99.1637 77.85C99.2303 77.0015 99.2583 63.4735 99.2583 49.9636C99.2583 36.4515 99.2281 22.9485 99.1614 22.1C98.8508 18.1454 98.1728 15.4864 96.7925 12.6758C95.66 10.375 94.4024 8.65681 92.5767 6.89999C89.3185 3.78787 85.3338 1.89393 80.5854 1.20908C78.2847 0.876508 77.8264 0.778023 66.054 0.757568H50.0242Z" fill="black"/>
<path d="M50.0015 13.6364C40.1261 13.6364 38.8867 13.6796 35.008 13.8561C31.1369 14.0334 28.4946 14.6462 26.1825 15.5455C23.791 16.4743 21.7622 17.7167 19.7411 19.7387C17.7184 21.7599 16.476 23.7887 15.5442 26.1796C14.6427 28.4924 14.0291 31.1356 13.8549 35.0053C13.6814 38.8841 13.636 40.1243 13.636 50C13.636 59.8758 13.6799 61.1114 13.8556 64.9902C14.0337 68.8614 14.6465 71.5038 15.545 73.8159C16.4745 76.2076 17.7169 78.2364 19.7388 80.2576C21.7592 82.2803 23.7879 83.5258 26.178 84.4546C28.4916 85.3538 31.1347 85.9667 35.005 86.144C38.8837 86.3205 40.1223 86.3636 49.997 86.3636C59.8732 86.3636 61.1088 86.3205 64.9874 86.144C68.8585 85.9667 71.5039 85.3538 73.8175 84.4546C76.2083 83.5258 78.234 82.2803 80.2544 80.2576C82.2771 78.2364 83.5194 76.2076 84.4512 73.8167C85.3451 71.5038 85.9588 68.8606 86.1406 64.9909C86.3148 61.1121 86.3603 59.8758 86.3603 50C86.3603 40.1243 86.3148 38.8849 86.1406 35.0061C85.9588 31.1349 85.3451 28.4924 84.4512 26.1803C83.5194 23.7887 82.2771 21.7599 80.2544 19.7387C78.2317 17.7159 76.2091 16.4735 73.8152 15.5455C71.4971 14.6462 68.8532 14.0334 64.9821 13.8561C61.1035 13.6796 59.8686 13.6364 49.9902 13.6364H50.0015ZM46.7395 20.1894C47.7077 20.1879 48.7879 20.1894 50.0015 20.1894C59.7103 20.1894 60.861 20.2243 64.695 20.3985C68.2404 20.5606 70.1645 21.153 71.4463 21.6508C73.1432 22.3099 74.3531 23.0977 75.625 24.3705C76.8977 25.6432 77.6855 26.8553 78.3461 28.5523C78.8438 29.8326 79.437 31.7568 79.5983 35.3023C79.7726 39.1356 79.8105 40.2871 79.8105 49.9917C79.8105 59.6962 79.7726 60.8477 79.5983 64.6811C79.4362 68.2265 78.8438 70.1508 78.3461 71.4311C77.687 73.128 76.8977 74.3364 75.625 75.6083C74.3523 76.8811 73.144 77.669 71.4463 78.328C70.1661 78.828 68.2404 79.419 64.695 79.5811C60.8618 79.7553 59.7103 79.7932 50.0015 79.7932C40.292 79.7932 39.1412 79.7553 35.308 79.5811C31.7627 79.4174 29.8385 78.825 28.556 78.3273C26.859 77.6682 25.647 76.8803 24.3743 75.6076C23.1016 74.3349 22.3137 73.1258 21.6531 71.428C21.1554 70.1477 20.5623 68.2235 20.4009 64.678C20.2267 60.8447 20.1918 59.6932 20.1918 49.9826C20.1918 40.272 20.2267 39.1265 20.4009 35.2932C20.563 31.7477 21.1554 29.8235 21.6531 28.5417C22.3122 26.8447 23.1016 25.6326 24.3743 24.3599C25.647 23.0871 26.859 22.2993 28.556 21.6387C29.8377 21.1387 31.7627 20.5477 35.308 20.3849C38.6625 20.2334 39.9624 20.1879 46.7395 20.1803V20.1894ZM69.4115 26.2273C67.0025 26.2273 65.048 28.1796 65.048 30.5894C65.048 32.9985 67.0025 34.953 69.4115 34.953C71.8206 34.953 73.775 32.9985 73.775 30.5894C73.775 28.1803 71.8206 26.2258 69.4115 26.2258V26.2273ZM50.0015 31.3258C39.689 31.3258 31.3278 39.6871 31.3278 50C31.3278 60.3129 39.689 68.6705 50.0015 68.6705C60.3141 68.6705 68.6722 60.3129 68.6722 50C68.6722 39.6871 60.3133 31.3258 50.0008 31.3258H50.0015ZM50.0015 37.8788C56.6953 37.8788 62.1224 43.3053 62.1224 50C62.1224 56.694 56.6953 62.1212 50.0015 62.1212C43.307 62.1212 37.8807 56.694 37.8807 50C37.8807 43.3053 43.307 37.8788 50.0015 37.8788V37.8788Z" fill="white"/>
</svg>
