<svg viewBox="0 0 600 300" fill="none" xmlns="http://www.w3.org/2000/svg">
  <rect width="100%" height="100%" rx="25" fill="#FDE000"/>
  <path d="M51.8828 230.159C60.1836 228.857 66.9382 227.107 72.1465 224.91C77.3548 222.632 81.3831 219.62 84.2314 215.877C87.1611 212.052 89.1143 207.332 90.0908 201.717C91.1488 196.102 91.6777 189.184 91.6777 180.965V46.4434H126.712V178.768C126.712 190.242 125.654 200.415 123.538 209.285C121.504 218.156 117.964 225.724 112.918 231.99C107.872 238.175 101.118 243.017 92.6543 246.517C84.1908 250.097 73.6113 252.254 60.916 252.986L51.8828 230.159ZM296.268 188.411C296.268 196.631 294.925 204.28 292.239 211.36C289.554 218.359 285.322 224.463 279.544 229.671C273.766 234.879 266.36 238.948 257.327 241.878C248.294 244.808 237.47 246.272 224.856 246.272C216.23 246.272 208.092 245.418 200.442 243.709C192.874 242.081 186.16 240.25 180.301 238.216C173.465 235.856 167.199 233.13 161.502 230.037L167.483 204.646C167.483 204.809 168.338 205.298 170.047 206.111C171.756 206.925 174.075 207.902 177.005 209.041C180.016 210.099 183.475 211.279 187.381 212.581C191.287 213.883 195.438 215.063 199.832 216.121C204.308 217.179 208.865 218.074 213.504 218.807C218.224 219.539 222.781 219.905 227.176 219.905C232.547 219.905 237.389 219.417 241.702 218.44C246.097 217.464 249.799 215.918 252.811 213.802C255.903 211.604 258.263 208.797 259.891 205.379C261.6 201.961 262.454 197.77 262.454 192.806C262.454 185.481 260.46 179.419 256.473 174.617C252.485 169.816 246.422 165.869 238.284 162.776L196.414 146.419C190.636 144.14 185.265 141.455 180.301 138.362C175.337 135.27 171.023 131.689 167.361 127.62C163.781 123.47 160.932 118.79 158.816 113.582C156.782 108.374 155.765 102.514 155.765 96.0039C155.765 86.6452 157.596 78.6292 161.258 71.9561C165.001 65.2829 169.965 59.7897 176.15 55.4766C182.417 51.1634 189.66 47.9896 197.879 45.9551C206.18 43.9206 214.847 42.9033 223.88 42.9033C231.774 42.9033 239.139 43.5544 245.975 44.8564C252.892 46.1585 259.077 47.7048 264.529 49.4951C270.063 51.2041 274.743 52.9538 278.567 54.7441C282.392 56.5345 285.159 57.918 286.868 58.8945L279.788 83.0645C278.323 82.1693 275.841 80.9486 272.342 79.4023C268.924 77.7747 264.855 76.1878 260.135 74.6416C255.496 73.0954 250.41 71.7526 244.876 70.6133C239.342 69.474 233.727 68.9043 228.03 68.9043C222.252 68.9043 216.963 69.3112 212.161 70.125C207.441 70.8574 203.372 72.1595 199.954 74.0312C196.536 75.903 193.851 78.4258 191.897 81.5996C190.026 84.7734 189.09 88.7204 189.09 93.4404C189.09 95.6377 189.375 97.7536 189.944 99.7881C190.595 101.823 191.653 103.776 193.118 105.647C194.583 107.438 196.536 109.188 198.978 110.896C201.5 112.524 204.674 114.07 208.499 115.535L250.003 131.038C256.676 133.561 262.861 136.572 268.558 140.071C274.254 143.571 279.137 147.68 283.206 152.4C287.275 157.039 290.449 162.369 292.728 168.392C295.088 174.332 296.268 181.006 296.268 188.411Z" fill="black"/>
  <path d="M306.864 215.027H327.982V237H306.864V215.027ZM360.27 200.745C360.27 205.424 360.616 209.412 361.308 212.708C362.04 216.004 363.078 218.71 364.42 220.826C365.763 222.901 367.391 224.427 369.303 225.403C371.216 226.339 373.352 226.807 375.712 226.807C378.967 226.807 382.08 226.197 385.05 224.976C388.021 223.755 390.584 221.863 392.741 219.3V182.557C389.73 180.156 386.759 178.243 383.83 176.819C380.9 175.354 377.807 174.622 374.552 174.622C371.785 174.622 369.486 175.253 367.655 176.514C365.824 177.735 364.359 179.485 363.261 181.763C362.162 184.042 361.389 186.788 360.941 190.003C360.494 193.217 360.27 196.798 360.27 200.745ZM371.439 163.086C375.875 163.086 379.862 163.88 383.402 165.467C386.942 167.054 390.055 169.495 392.741 172.791V136.109L409.525 133.484V237H397.501L394.267 226.319C393.29 228.069 392.029 229.696 390.482 231.202C388.977 232.667 387.288 233.928 385.417 234.986C383.545 236.044 381.551 236.878 379.435 237.488C377.319 238.099 375.163 238.404 372.965 238.404C367.635 238.404 363.118 237.366 359.416 235.291C355.713 233.175 352.702 230.327 350.382 226.746C348.063 223.125 346.374 218.934 345.316 214.173C344.258 209.371 343.729 204.265 343.729 198.853C343.729 194.011 344.36 189.433 345.622 185.12C346.924 180.766 348.755 176.962 351.115 173.707C353.515 170.451 356.425 167.868 359.843 165.955C363.301 164.043 367.167 163.086 371.439 163.086ZM482.707 231.751C480.916 232.85 479.004 233.806 476.969 234.62C474.935 235.433 472.86 236.125 470.744 236.695C468.668 237.264 466.614 237.692 464.579 237.977C462.545 238.261 460.632 238.404 458.842 238.404C453.267 238.404 448.303 237.57 443.949 235.901C439.636 234.192 435.974 231.771 432.963 228.638C429.993 225.464 427.714 221.66 426.127 217.225C424.581 212.749 423.808 207.744 423.808 202.21C423.808 196.554 424.52 191.346 425.944 186.585C427.368 181.784 429.464 177.653 432.23 174.195C435.038 170.695 438.497 167.969 442.606 166.016C446.757 164.063 451.518 163.086 456.889 163.086C461.649 163.086 465.84 163.86 469.462 165.406C473.124 166.911 476.196 169.068 478.678 171.875C481.16 174.683 483.032 178.06 484.293 182.007C485.555 185.954 486.186 190.349 486.186 195.191C486.186 196.696 486.165 198.182 486.125 199.646C486.084 201.111 486.023 202.535 485.941 203.919H440.897C440.938 207.866 441.406 211.284 442.301 214.173C443.196 217.062 444.458 219.442 446.085 221.314C447.754 223.186 449.768 224.569 452.128 225.464C454.529 226.36 457.214 226.807 460.185 226.807C463.969 226.807 467.305 226.278 470.194 225.22C473.083 224.122 475.932 222.494 478.739 220.337L482.707 231.751ZM472.086 193.909C472.086 187.562 470.805 182.78 468.241 179.566C465.678 176.351 462.117 174.703 457.56 174.622C454.793 174.703 452.392 175.293 450.358 176.392C448.364 177.45 446.675 178.895 445.292 180.726C443.949 182.557 442.912 184.693 442.179 187.134C441.447 189.576 441.02 192.18 440.897 194.947H472.086V193.909ZM517.497 237L492.777 164.856H510.111L527.14 221.497L543.864 164.856H561.381L536.54 237H517.497Z" fill="black"/>
</svg>
