<svg width="250" height="204" viewBox="0 0 250 204" fill="none" xmlns="http://www.w3.org/2000/svg">
<path d="M78.6 203.6C172.9 203.6 224.5 125.4 224.5 57.7C224.5 55.5 224.5 53.3 224.4 51.1C234.4 43.9 243.1 34.8 250 24.5C240.8 28.6 230.9 31.3 220.5 32.6C231.1 26.3 239.2 16.2 243.1 4.19999C233.2 10.1 222.2 14.3 210.5 16.6C201.1 6.59999 187.8 0.399994 173.1 0.399994C144.8 0.399994 121.8 23.4 121.8 51.7C121.8 55.7 122.3 59.6 123.1 63.4C80.5 61.3 42.7 40.8 17.4 9.8C13 17.4 10.5 26.2 10.5 35.6C10.5 53.4 19.6 69.1 33.3 78.3C24.9 78 17 75.7 10.1 71.9C10.1 72.1 10.1 72.3 10.1 72.6C10.1 97.4 27.8 118.2 51.2 122.9C46.9 124.1 42.4 124.7 37.7 124.7C34.4 124.7 31.2 124.4 28.1 123.8C34.6 144.2 53.6 159 76 159.4C58.4 173.2 36.3 181.4 12.3 181.4C8.19998 181.4 4.09998 181.2 0.0999756 180.7C22.7 195.1 49.7 203.6 78.6 203.6Z" fill="black"/>
</svg>
